# xmcd
#
# Track frame offsets:
# 150
# 17102
# 37404
# 51853
# 78833
# 97018
# 112777
# 125043
# 139466
# 157292
#
# Disc length: 2288 seconds
#
#
# Revision: 2
# Processed by: cddbd v1.5.1PL0 Copyright (c) Steve Scherf et al.
# Submitted via: HACP 1.20
#
DISCID=8f08ee0a
DTITLE=Lou Rawls with Les McCann Ltd. - Stormy Monday
DYEAR=1962
DGENRE=Blues
TTITLE0=(They Call It) Stormy Monday
TTITLE1=God Bless the Child
TTITLE2=See See Rider
TTITLE3=Willow Weep for Me
TTITLE4=I'm Gonna Move To the Outskirts of Town
TTITLE5=In the Evening (When the Sun Goes Down)
TTITLE6='Tain't Nobody's Biz-ness If I Do
TTITLE7=Lost and Lookin'
TTITLE8=I'd Rather Drink Muddy Water
TTITLE9=Sweet Lover
EXTD=Les McCann Ltd. with Ron Jefferson and Leroy Vinegar;\nCapitol ST 1714
EXTT0=
EXTT1=
EXTT2=
EXTT3=
EXTT4=
EXTT5=
EXTT6=
EXTT7=
EXTT8=
EXTT9=
PLAYORDER=
